<svg width="1440" height="288" viewBox="0 0 1440 288" fill="none" xmlns="http://www.w3.org/2000/svg" preserveAspectRatio="none"><path d="M0 64L60 58.7C120 53 240 43 360 64C480 85 600 139 720 165.3C840 192 960 192 1080 160C1200 128 1320 64 1380 32L1440 0V288H1380C1320 288 1200 288 1080 288C960 288 840 288 720 288C600 288 480 288 360 288C240 288 120 288 60 288H0V64Z" fill="url(#paint0_linear_2094_857)"/>
<defs>
<linearGradient id="paint0_linear_2094_857" x1="720.057" y1="288" x2="719.527" y2="0.000784587" gradientUnits="userSpaceOnUse">
<stop stop-color="#6495ED"/>
<stop offset="1" stop-color="#A2D9FF"/>
</linearGradient>
</defs>
</svg>
